<?xml version="1.0" encoding="utf-8"?>
<!-- Generator: $$$/GeneralStr/196=Adobe Illustrator 27.6.0, SVG Export Plug-In . SVG Version: 6.00 Build 0)  -->
<svg version="1.1" id="Ebene_1" xmlns="http://www.w3.org/2000/svg" xmlns:xlink="http://www.w3.org/1999/xlink" x="0px" y="0px"
	 viewBox="0 0 313.29 313.29" style="enable-background:new 0 0 313.29 313.29;" xml:space="preserve">
<style type="text/css">
	.st0{fill:none;stroke:#FFFFFF;stroke-linecap:round;stroke-miterlimit:10;}
	.st1{fill:none;stroke:#FFFFFF;stroke-linecap:round;stroke-linejoin:round;stroke-miterlimit:10;}
	.st2{fill:none;stroke:#FFFFFF;stroke-width:2;stroke-linecap:round;stroke-miterlimit:10;}
	.st3{fill:none;stroke:#FFFFFF;stroke-width:2;stroke-linecap:round;stroke-linejoin:round;stroke-miterlimit:10;}
	.st4{fill:#010202;}
</style>
<rect x="337.55" y="-23.8" style="fill:none;" width="446.84" height="355.06"/>
<text transform="matrix(1 0 0 1 337.5526 127.085)"><tspan x="0" y="0" class="st4" style="font-family:'ProximaNova-Bold'; font-size:100px;">Marvin</tspan><tspan x="0" y="120" class="st4" style="font-family:'ProximaNova-Bold'; font-size:100px;">Schmitt</tspan></text>
<g>
	<line class="st0" x1="-176.91" y1="-16.69" x2="-149.53" y2="-16.69"/>
	<g>
		<line class="st1" x1="-230.49" y1="83.03" x2="-212.69" y2="97.18"/>
		<line class="st1" x1="-202.58" y1="83.03" x2="-184.78" y2="97.18"/>
		<line class="st1" x1="-212.69" y1="97.18" x2="-184.78" y2="97.18"/>
		<line class="st1" x1="-230.49" y1="83.03" x2="-202.58" y2="83.03"/>
		<line class="st0" x1="-230.49" y1="83.03" x2="-176.91" y2="-16.69"/>
		<line class="st0" x1="-203.11" y1="83.03" x2="-149.53" y2="-16.69"/>
		<line class="st0" x1="-184.78" y1="97.18" x2="-131.2" y2="-2.54"/>
		<line class="st0" x1="-131.2" y1="-2.54" x2="-149.53" y2="-16.69"/>
	</g>
	<line class="st1" x1="-78.33" y1="83.1" x2="-60.53" y2="97.25"/>
	<line class="st1" x1="-50.42" y1="83.1" x2="-32.62" y2="97.25"/>
	<line class="st1" x1="-60.53" y1="97.25" x2="-32.62" y2="97.25"/>
	<line class="st1" x1="-78.33" y1="83.1" x2="-50.42" y2="83.1"/>
	<line class="st1" x1="-59.94" y1="97.25" x2="-160.3" y2="-112.94"/>
	<line class="st1" x1="-32.62" y1="97.25" x2="-132.98" y2="-112.94"/>
	<line class="st1" x1="-160.3" y1="-112.94" x2="-132.98" y2="-112.94"/>
	<line class="st0" x1="-160.3" y1="-112.94" x2="-172.44" y2="-96.58"/>
	<line class="st0" x1="-132.98" y1="-112.94" x2="-145.11" y2="-96.58"/>
	<line class="st0" x1="-145.11" y1="-96.58" x2="-172.44" y2="-96.58"/>
	<line class="st1" x1="-80.22" y1="80.24" x2="-170.85" y2="-93.2"/>
</g>
<g>
	<line class="st2" x1="-356.53" y1="76.17" x2="-312.17" y2="76.17"/>
	<g>
		<line class="st3" x1="-443.35" y1="237.73" x2="-414.51" y2="260.66"/>
		<line class="st3" x1="-398.12" y1="237.73" x2="-369.28" y2="260.66"/>
		<line class="st3" x1="-414.51" y1="260.66" x2="-369.28" y2="260.66"/>
		<line class="st3" x1="-443.35" y1="237.73" x2="-398.12" y2="237.73"/>
		<line class="st2" x1="-443.35" y1="237.73" x2="-356.53" y2="76.17"/>
		<line class="st2" x1="-398.99" y1="237.73" x2="-312.17" y2="76.17"/>
		<line class="st2" x1="-369.28" y1="260.66" x2="-282.47" y2="99.1"/>
		<line class="st2" x1="-282.47" y1="99.1" x2="-312.17" y2="76.17"/>
	</g>
	<line class="st3" x1="-196.81" y1="237.85" x2="-167.97" y2="260.78"/>
	<line class="st3" x1="-151.59" y1="237.85" x2="-122.75" y2="260.78"/>
	<line class="st3" x1="-167.97" y1="260.78" x2="-122.75" y2="260.78"/>
	<line class="st3" x1="-196.81" y1="237.85" x2="-151.59" y2="237.85"/>
	<line class="st3" x1="-167.02" y1="260.78" x2="-329.62" y2="-79.78"/>
	<line class="st3" x1="-122.75" y1="260.78" x2="-285.35" y2="-79.78"/>
	<line class="st3" x1="-329.62" y1="-79.78" x2="-285.35" y2="-79.78"/>
	<line class="st2" x1="-329.62" y1="-79.78" x2="-349.28" y2="-53.27"/>
	<line class="st2" x1="-285.35" y1="-79.78" x2="-305.01" y2="-53.27"/>
	<line class="st2" x1="-305.01" y1="-53.27" x2="-349.28" y2="-53.27"/>
	<line class="st3" x1="-199.87" y1="233.22" x2="-346.71" y2="-47.79"/>
</g>
<g>
	<circle class="st4" cx="156.88" cy="156.25" r="153.23"/>
	<g>
		<line class="st2" x1="115.9" y1="148.26" x2="140.64" y2="148.26"/>
		<g>
			<line class="st3" x1="67.49" y1="238.35" x2="83.58" y2="251.14"/>
			<line class="st3" x1="92.71" y1="238.35" x2="108.79" y2="251.14"/>
			<line class="st3" x1="83.58" y1="251.14" x2="108.79" y2="251.14"/>
			<line class="st3" x1="67.49" y1="238.35" x2="92.71" y2="238.35"/>
			<line class="st2" x1="67.49" y1="238.35" x2="115.9" y2="148.26"/>
			<line class="st2" x1="92.23" y1="238.35" x2="140.64" y2="148.26"/>
			<line class="st2" x1="108.79" y1="251.14" x2="157.2" y2="161.05"/>
			<line class="st2" x1="157.2" y1="161.05" x2="140.64" y2="148.26"/>
		</g>
		<line class="st3" x1="204.96" y1="238.41" x2="221.04" y2="251.2"/>
		<line class="st3" x1="230.18" y1="238.41" x2="246.26" y2="251.2"/>
		<line class="st3" x1="221.04" y1="251.2" x2="246.26" y2="251.2"/>
		<line class="st3" x1="204.96" y1="238.41" x2="230.18" y2="238.41"/>
		<line class="st3" x1="221.57" y1="251.2" x2="130.91" y2="61.31"/>
		<line class="st3" x1="246.26" y1="251.2" x2="155.59" y2="61.31"/>
		<line class="st3" x1="130.91" y1="61.31" x2="155.59" y2="61.31"/>
		<line class="st2" x1="130.91" y1="61.31" x2="119.94" y2="76.08"/>
		<line class="st2" x1="155.59" y1="61.31" x2="144.63" y2="76.08"/>
		<line class="st2" x1="144.63" y1="76.08" x2="119.94" y2="76.08"/>
		<line class="st3" x1="119.94" y1="76.08" x2="204.96" y2="238.41"/>
	</g>
</g>
<line class="st2" x1="948.36" y1="678.12" x2="992.72" y2="678.12"/>
<g>
	<line class="st3" x1="861.55" y1="839.69" x2="890.38" y2="862.62"/>
	<line class="st3" x1="906.77" y1="839.69" x2="935.61" y2="862.62"/>
	<line class="st3" x1="890.38" y1="862.62" x2="935.61" y2="862.62"/>
	<line class="st3" x1="861.55" y1="839.69" x2="906.77" y2="839.69"/>
	<line class="st2" x1="861.55" y1="839.69" x2="948.36" y2="678.12"/>
	<line class="st2" x1="905.9" y1="839.69" x2="992.72" y2="678.12"/>
	<line class="st2" x1="935.61" y1="862.62" x2="1022.42" y2="701.05"/>
	<line class="st2" x1="1022.42" y1="701.05" x2="992.72" y2="678.12"/>
</g>
<line class="st3" x1="1108.08" y1="839.8" x2="1136.92" y2="862.73"/>
<line class="st3" x1="1153.3" y1="839.8" x2="1182.14" y2="862.73"/>
<line class="st3" x1="1136.92" y1="862.73" x2="1182.14" y2="862.73"/>
<line class="st3" x1="1108.08" y1="839.8" x2="1153.3" y2="839.8"/>
<line class="st3" x1="1137.87" y1="862.73" x2="975.27" y2="522.18"/>
<line class="st3" x1="1182.14" y1="862.73" x2="1019.54" y2="522.18"/>
<line class="st3" x1="975.27" y1="522.18" x2="1019.54" y2="522.18"/>
<line class="st2" x1="975.27" y1="522.18" x2="955.61" y2="548.68"/>
<line class="st2" x1="1019.54" y1="522.18" x2="999.88" y2="548.68"/>
<line class="st2" x1="999.88" y1="548.68" x2="955.61" y2="548.68"/>
<line class="st3" x1="955.61" y1="548.68" x2="1108.08" y2="839.8"/>
</svg>
